<svg xmlns="http://www.w3.org/2000/svg" xmlns:xlink="http://www.w3.org/1999/xlink" width="158" zoomAndPan="magnify" viewBox="0 0 118.5 118.499997" height="158" preserveAspectRatio="xMidYMid meet" version="1.0"><defs><clipPath id="c1c4ea3233"><path d="M 0 0 L 117.253906 0 L 117.253906 117.253906 L 0 117.253906 Z M 0 0 " clip-rule="nonzero"/></clipPath><clipPath id="cc7a469d45"><path d="M 0.0078125 0 L 117.261719 0 L 117.261719 117.253906 L 0.0078125 117.253906 Z M 0.0078125 0 " clip-rule="nonzero"/></clipPath></defs><g clip-path="url(#c1c4ea3233)"><path fill="#ffffff" d="M 37.015625 80.417969 L 37.015625 98.921875 L 55.519531 98.921875 L 55.519531 80.417969 L 81.871094 80.417969 C 86.617188 80.417969 90.75 78.492188 93.875 75.390625 C 96.972656 72.289062 98.898438 68.132812 98.898438 63.390625 L 98.898438 35.535156 C 98.898438 30.789062 96.972656 26.65625 93.875 23.53125 C 90.773438 20.433594 86.617188 18.507812 81.871094 18.507812 L 54.042969 18.507812 C 49.296875 18.507812 45.164062 20.433594 42.039062 23.53125 C 38.917969 26.632812 37.015625 30.789062 37.015625 35.535156 L 37.015625 61.886719 L 0 61.886719 L 0 80.394531 L 37.015625 80.394531 Z M 18.507812 61.910156 L 18.507812 35.535156 C 18.507812 25.765625 22.5 16.886719 28.863281 10.355469 C 35.394531 3.992188 44.269531 0 54.042969 0 L 81.871094 0 C 91.644531 0 100.519531 3.992188 107.050781 10.355469 C 113.4375 16.886719 117.429688 25.765625 117.429688 35.535156 L 117.429688 63.367188 C 117.429688 73.136719 113.4375 82.011719 107.074219 88.542969 C 100.566406 94.90625 91.667969 98.898438 81.894531 98.898438 L 55.519531 98.898438 L 55.519531 117.429688 L 37.015625 117.429688 L 37.015625 98.921875 L 18.507812 98.921875 Z M 73.605469 37.015625 L 62.355469 37.015625 C 60.570312 37.015625 58.808594 37.765625 57.609375 39.082031 C 56.273438 40.253906 55.542969 42.039062 55.542969 43.824219 L 55.542969 61.886719 L 73.605469 61.886719 C 75.390625 61.886719 77.152344 61.132812 78.347656 59.820312 C 79.6875 58.644531 80.417969 56.859375 80.417969 55.074219 L 80.417969 43.824219 C 80.417969 42.039062 79.664062 40.277344 78.347656 39.082031 C 77.152344 37.765625 75.367188 37.015625 73.605469 37.015625 Z M 73.605469 37.015625 " fill-opacity="1" fill-rule="nonzero"/></g><g clip-path="url(#cc7a469d45)"><path fill="#ffffff" d="M 37.019531 80.417969 L 37.019531 98.921875 L 55.527344 98.921875 L 55.527344 80.417969 L 81.878906 80.417969 C 86.625 80.417969 90.757812 78.492188 93.882812 75.390625 C 96.980469 72.289062 98.90625 68.132812 98.90625 63.390625 L 98.90625 35.535156 C 98.90625 30.789062 96.980469 26.65625 93.882812 23.53125 C 90.78125 20.433594 86.625 18.507812 81.878906 18.507812 L 54.046875 18.507812 C 49.304688 18.507812 45.171875 20.433594 42.046875 23.53125 C 38.921875 26.632812 37.019531 30.789062 37.019531 35.535156 L 37.019531 61.886719 L 0.0078125 61.886719 L 0.0078125 80.394531 L 37.019531 80.394531 Z M 18.515625 61.910156 L 18.515625 35.535156 C 18.515625 25.765625 22.507812 16.886719 28.871094 10.355469 C 35.402344 3.992188 44.277344 0 54.046875 0 L 81.878906 0 C 91.648438 0 100.527344 3.992188 107.054688 10.355469 C 113.445312 16.886719 117.4375 25.765625 117.4375 35.535156 L 117.4375 63.367188 C 117.4375 73.136719 113.445312 82.011719 107.078125 88.542969 C 100.574219 94.90625 91.671875 98.898438 81.902344 98.898438 L 55.527344 98.898438 L 55.527344 117.429688 L 37.019531 117.429688 L 37.019531 98.921875 L 18.515625 98.921875 Z M 73.613281 37.015625 L 62.363281 37.015625 C 60.578125 37.015625 58.816406 37.765625 57.617188 39.082031 C 56.28125 40.253906 55.550781 42.039062 55.550781 43.824219 L 55.550781 61.886719 L 73.613281 61.886719 C 75.398438 61.886719 77.160156 61.132812 78.355469 59.820312 C 79.695312 58.644531 80.421875 56.859375 80.421875 55.074219 L 80.421875 43.824219 C 80.421875 42.039062 79.671875 40.277344 78.355469 39.082031 C 77.160156 37.765625 75.375 37.015625 73.613281 37.015625 Z M 73.613281 37.015625 " fill-opacity="1" fill-rule="nonzero"/></g></svg>