<svg xmlns="http://www.w3.org/2000/svg" xmlns:xlink="http://www.w3.org/1999/xlink" width="316" zoomAndPan="magnify" viewBox="0 0 236.87999 189.000001" height="252" preserveAspectRatio="xMidYMid meet" version="1.0"><defs><g/><clipPath id="9a85063431"><path d="M 0.5625 26.28125 L 117.695312 26.28125 L 117.695312 143.410156 L 0.5625 143.410156 Z M 0.5625 26.28125 " clip-rule="nonzero"/></clipPath><clipPath id="93ce6e5069"><rect x="0" width="93" y="0" height="132"/></clipPath></defs><g clip-path="url(#9a85063431)"><path fill="#ffffff" d="M 37.539062 106.609375 L 37.539062 125.097656 L 56.027344 125.097656 L 56.027344 106.609375 L 82.347656 106.609375 C 87.089844 106.609375 91.21875 104.6875 94.335938 101.589844 C 97.433594 98.492188 99.359375 94.339844 99.359375 89.601562 L 99.359375 61.777344 C 99.359375 57.035156 97.433594 52.90625 94.335938 49.789062 C 91.242188 46.691406 87.089844 44.765625 82.347656 44.765625 L 54.546875 44.765625 C 49.808594 44.765625 45.679688 46.691406 42.558594 49.789062 C 39.4375 52.882812 37.539062 57.035156 37.539062 61.777344 L 37.539062 88.097656 L 0.5625 88.097656 L 0.5625 106.585938 L 37.539062 106.585938 Z M 19.050781 88.121094 L 19.050781 61.777344 C 19.050781 52.015625 23.039062 43.148438 29.398438 36.625 C 35.917969 30.269531 44.789062 26.28125 54.546875 26.28125 L 82.347656 26.28125 C 92.109375 26.28125 100.976562 30.269531 107.5 36.625 C 113.878906 43.148438 117.867188 52.015625 117.867188 61.777344 L 117.867188 89.578125 C 117.867188 99.335938 113.878906 108.207031 107.523438 114.726562 C 101.023438 121.085938 92.132812 125.074219 82.371094 125.074219 L 56.027344 125.074219 L 56.027344 143.585938 L 37.539062 143.585938 L 37.539062 125.097656 L 19.050781 125.097656 Z M 74.089844 63.253906 L 62.851562 63.253906 C 61.070312 63.253906 59.308594 64.003906 58.113281 65.320312 C 56.777344 66.492188 56.050781 68.273438 56.050781 70.058594 L 56.050781 88.097656 L 74.089844 88.097656 C 75.875 88.097656 77.632812 87.347656 78.828125 86.035156 C 80.167969 84.863281 80.894531 83.078125 80.894531 81.296875 L 80.894531 70.058594 C 80.894531 68.273438 80.144531 66.515625 78.828125 65.320312 C 77.632812 64.003906 75.851562 63.253906 74.089844 63.253906 Z M 74.089844 63.253906 " fill-opacity="1" fill-rule="nonzero"/></g><g transform="matrix(1, 0, 0, 1, 117, 26)"><g clip-path="url(#93ce6e5069)"><g fill="#ffffff" fill-opacity="1"><g transform="translate(0.879941, 102.330254)"><g><path d="M 33.953125 1.078125 C 27.878906 1.078125 22.609375 -0.1875 18.140625 -2.71875 C 13.679688 -5.257812 10.253906 -8.707031 7.859375 -13.0625 C 5.472656 -17.414062 4.28125 -22.34375 4.28125 -27.84375 C 4.28125 -34.269531 5.582031 -39.75 8.1875 -44.28125 C 10.800781 -48.8125 14.210938 -52.289062 18.421875 -54.71875 C 22.628906 -57.144531 27.09375 -58.359375 31.8125 -58.359375 C 35.445312 -58.359375 38.890625 -57.609375 42.140625 -56.109375 C 45.390625 -54.617188 48.265625 -52.566406 50.765625 -49.953125 C 53.265625 -47.347656 55.242188 -44.332031 56.703125 -40.90625 C 58.171875 -37.476562 58.90625 -33.835938 58.90625 -29.984375 C 58.832031 -28.273438 58.148438 -26.882812 56.859375 -25.8125 C 55.578125 -24.738281 54.082031 -24.203125 52.375 -24.203125 L 11.453125 -24.203125 L 8.25 -34.90625 L 47.546875 -34.90625 L 45.1875 -32.765625 L 45.1875 -35.65625 C 45.050781 -37.726562 44.320312 -39.582031 43 -41.21875 C 41.675781 -42.863281 40.03125 -44.164062 38.0625 -45.125 C 36.101562 -46.09375 34.019531 -46.578125 31.8125 -46.578125 C 29.664062 -46.578125 27.664062 -46.289062 25.8125 -45.71875 C 23.957031 -45.15625 22.347656 -44.191406 20.984375 -42.828125 C 19.628906 -41.472656 18.554688 -39.65625 17.765625 -37.375 C 16.984375 -35.09375 16.59375 -32.203125 16.59375 -28.703125 C 16.59375 -24.847656 17.394531 -21.582031 19 -18.90625 C 20.613281 -16.226562 22.6875 -14.191406 25.21875 -12.796875 C 27.75 -11.398438 30.445312 -10.703125 33.3125 -10.703125 C 35.945312 -10.703125 38.050781 -10.914062 39.625 -11.34375 C 41.195312 -11.78125 42.460938 -12.300781 43.421875 -12.90625 C 44.390625 -13.507812 45.265625 -14.023438 46.046875 -14.453125 C 47.335938 -15.097656 48.550781 -15.421875 49.6875 -15.421875 C 51.257812 -15.421875 52.5625 -14.882812 53.59375 -13.8125 C 54.632812 -12.738281 55.15625 -11.488281 55.15625 -10.0625 C 55.15625 -8.132812 54.15625 -6.382812 52.15625 -4.8125 C 50.300781 -3.25 47.691406 -1.875 44.328125 -0.6875 C 40.972656 0.488281 37.515625 1.078125 33.953125 1.078125 Z M 33.953125 1.078125 "/></g></g></g><g fill="#ffffff" fill-opacity="1"><g transform="translate(64.057766, 102.330254)"><g><path d="M 19.0625 -6.53125 C 19.0625 -4.675781 18.453125 -3.125 17.234375 -1.875 C 16.023438 -0.625 14.492188 0 12.640625 0 C 10.785156 0 9.25 -0.625 8.03125 -1.875 C 6.820312 -3.125 6.21875 -4.675781 6.21875 -6.53125 L 6.21875 -50.765625 C 6.21875 -52.617188 6.820312 -54.171875 8.03125 -55.421875 C 9.25 -56.671875 10.785156 -57.296875 12.640625 -57.296875 C 14.492188 -57.296875 16.023438 -56.671875 17.234375 -55.421875 C 18.453125 -54.171875 19.0625 -52.617188 19.0625 -50.765625 Z M 12.53125 -64.25 C 10.101562 -64.25 8.390625 -64.640625 7.390625 -65.421875 C 6.390625 -66.210938 5.890625 -67.609375 5.890625 -69.609375 L 5.890625 -71.640625 C 5.890625 -73.710938 6.441406 -75.125 7.546875 -75.875 C 8.648438 -76.625 10.347656 -77 12.640625 -77 C 15.128906 -77 16.875 -76.601562 17.875 -75.8125 C 18.875 -75.03125 19.375 -73.640625 19.375 -71.640625 L 19.375 -69.609375 C 19.375 -67.535156 18.835938 -66.125 17.765625 -65.375 C 16.703125 -64.625 14.957031 -64.25 12.53125 -64.25 Z M 12.53125 -64.25 "/></g></g></g></g></g></svg>